<svg width="24" height="24" viewBox="0 0 24 24" fill="none" xmlns="http://www.w3.org/2000/svg">
<g clip-path="url(#clip0_1_2803)">
<path d="M11.115 18.216L11.0417 18.1486L5.90894 13.382C5.00952 12.547 4.49976 11.3752 4.49976 10.1476V10.0509C4.49976 7.98843 5.9646 6.2189 7.99194 5.83218C9.14624 5.60953 10.3269 5.87613 11.2673 6.53824C11.531 6.72574 11.7771 6.94253 11.9998 7.19156C12.1228 7.05093 12.2546 6.92203 12.3953 6.80191C12.5037 6.70816 12.615 6.62027 12.7322 6.53824C13.6726 5.87613 14.8533 5.60953 16.0076 5.82925C18.0349 6.21597 19.4998 7.98843 19.4998 10.0509V10.1476C19.4998 11.3752 18.99 12.547 18.0906 13.382L12.9578 18.1486L12.8845 18.216C12.6443 18.4386 12.3279 18.5646 11.9998 18.5646C11.6716 18.5646 11.3552 18.4416 11.115 18.216ZM11.5046 8.74722C11.4929 8.73843 11.4841 8.72671 11.4753 8.71499L10.9539 8.12906L10.9509 8.12613C10.2742 7.36734 9.25171 7.02164 8.25562 7.21207C6.89038 7.47281 5.90601 8.66226 5.90601 10.0509V10.1476C5.90601 10.9826 6.25464 11.7824 6.86694 12.3507L11.9998 17.1173L17.1326 12.3507C17.7449 11.7824 18.0935 10.9826 18.0935 10.1476V10.0509C18.0935 8.66519 17.1091 7.47281 15.7468 7.21207C14.7507 7.02164 13.7253 7.37027 13.0515 8.12613C13.0515 8.12613 13.0515 8.12613 13.0486 8.12906C13.0457 8.13199 13.0486 8.12906 13.0457 8.13199L12.5242 8.71792C12.5154 8.72964 12.5037 8.73843 12.4949 8.75015C12.363 8.88199 12.1843 8.95523 11.9998 8.95523C11.8152 8.95523 11.6365 8.88199 11.5046 8.75015V8.74722Z" fill="#57626F"/>
</g>
<defs>
<clipPath id="clip0_1_2803">
<rect width="15" height="15" fill="white" transform="translate(4.49976 4.49981)"/>
</clipPath>
</defs>
</svg>
